<svg width="1105" height="647" viewBox="0 0 1105 647" fill="none" xmlns="http://www.w3.org/2000/svg">
<path d="M129.215 87H114.385L136.981 21.5455H154.815L177.379 87H162.55L146.154 36.5028H145.643L129.215 87ZM128.288 61.272H163.317V72.0746H128.288V61.272ZM198.617 58.6193V87H185.002V37.9091H197.977V46.5703H198.553C199.639 43.7152 201.461 41.4567 204.018 39.7947C206.575 38.1115 209.675 37.2699 213.318 37.2699C216.727 37.2699 219.7 38.0156 222.235 39.5071C224.771 40.9986 226.742 43.1293 228.148 45.8991C229.554 48.6477 230.257 51.929 230.257 55.7429V87H216.642V58.1719C216.664 55.1676 215.896 52.8239 214.341 51.1406C212.786 49.4361 210.644 48.5838 207.917 48.5838C206.085 48.5838 204.465 48.978 203.059 49.7663C201.674 50.5547 200.588 51.7053 199.799 53.218C199.032 54.7095 198.638 56.5099 198.617 58.6193ZM771.528 37.9091V48.1364H741.229V37.9091H771.528ZM748.165 87V34.3615C748.165 30.8033 748.857 27.8523 750.242 25.5085C751.648 23.1648 753.566 21.407 755.995 20.2351C758.424 19.0632 761.183 18.4773 764.273 18.4773C766.361 18.4773 768.268 18.6371 769.994 18.9567C771.741 19.2763 773.04 19.5639 773.893 19.8196L771.464 30.0469C770.931 29.8764 770.271 29.7166 769.482 29.5675C768.715 29.4183 767.927 29.3438 767.117 29.3438C765.114 29.3438 763.719 29.8125 762.93 30.75C762.142 31.6662 761.748 32.9553 761.748 34.6172V87H748.165ZM800.268 87.9588C795.303 87.9588 791.01 86.9041 787.388 84.7947C783.787 82.6641 781.007 79.7024 779.046 75.9098C777.086 72.0959 776.106 67.6747 776.106 62.6463C776.106 57.5753 777.086 53.1435 779.046 49.3509C781.007 45.5369 783.787 42.5753 787.388 40.4659C791.01 38.3352 795.303 37.2699 800.268 37.2699C805.232 37.2699 809.515 38.3352 813.116 40.4659C816.738 42.5753 819.529 45.5369 821.49 49.3509C823.45 53.1435 824.43 57.5753 824.43 62.6463C824.43 67.6747 823.45 72.0959 821.49 75.9098C819.529 79.7024 816.738 82.6641 813.116 84.7947C809.515 86.9041 805.232 87.9588 800.268 87.9588ZM800.332 77.4119C802.59 77.4119 804.476 76.7727 805.989 75.4943C807.502 74.1946 808.642 72.4261 809.409 70.1889C810.197 67.9517 810.591 65.4055 810.591 62.5504C810.591 59.6953 810.197 57.1491 809.409 54.9119C808.642 52.6747 807.502 50.9062 805.989 49.6065C804.476 48.3068 802.59 47.657 800.332 47.657C798.052 47.657 796.134 48.3068 794.579 49.6065C793.045 50.9062 791.884 52.6747 791.095 54.9119C790.328 57.1491 789.945 59.6953 789.945 62.5504C789.945 65.4055 790.328 67.9517 791.095 70.1889C791.884 72.4261 793.045 74.1946 794.579 75.4943C796.134 76.7727 798.052 77.4119 800.332 77.4119ZM833.283 87V37.9091H846.482V46.4744H846.994C847.889 43.4276 849.391 41.1264 851.5 39.571C853.61 37.9943 856.039 37.206 858.787 37.206C859.469 37.206 860.204 37.2486 860.992 37.3338C861.781 37.419 862.473 37.5362 863.07 37.6854V49.7663C862.431 49.5746 861.546 49.4041 860.417 49.255C859.288 49.1058 858.254 49.0312 857.317 49.0312C855.314 49.0312 853.524 49.468 851.948 50.3416C850.392 51.1939 849.156 52.3871 848.24 53.9212C847.345 55.4553 846.898 57.2237 846.898 59.2266V87H833.283ZM904.938 87.9268C901.806 87.9268 899.014 87.3835 896.564 86.2969C894.114 85.1889 892.175 83.5589 890.747 81.407C889.341 79.2337 888.638 76.5277 888.638 73.2891C888.638 70.5618 889.139 68.2713 890.14 66.4176C891.142 64.5639 892.505 63.0724 894.231 61.9432C895.957 60.8139 897.917 59.9616 900.112 59.3864C902.328 58.8111 904.65 58.4062 907.079 58.1719C909.934 57.8736 912.235 57.5966 913.982 57.3409C915.73 57.0639 916.997 56.6591 917.786 56.1264C918.574 55.5937 918.968 54.8054 918.968 53.7614V53.5696C918.968 51.5455 918.329 49.9794 917.051 48.8714C915.794 47.7635 914.004 47.2095 911.681 47.2095C909.231 47.2095 907.281 47.7528 905.833 48.8395C904.384 49.9048 903.425 51.2472 902.956 52.8665L890.364 51.8438C891.003 48.8608 892.26 46.2827 894.135 44.1094C896.01 41.9148 898.428 40.2315 901.39 39.0597C904.373 37.8665 907.825 37.2699 911.745 37.2699C914.472 37.2699 917.083 37.5895 919.575 38.2287C922.09 38.8679 924.316 39.8587 926.255 41.201C928.215 42.5433 929.76 44.2692 930.889 46.3786C932.019 48.4666 932.583 50.9702 932.583 53.8892V87H919.671V80.1925H919.288C918.499 81.7266 917.445 83.0795 916.124 84.2514C914.803 85.402 913.215 86.3075 911.362 86.968C909.508 87.6072 907.367 87.9268 904.938 87.9268ZM908.837 78.5305C910.84 78.5305 912.608 78.1364 914.142 77.348C915.676 76.5384 916.88 75.4517 917.754 74.0881C918.627 72.7244 919.064 71.1797 919.064 69.4538V64.2443C918.638 64.5213 918.052 64.777 917.306 65.0114C916.582 65.2244 915.762 65.4268 914.845 65.6186C913.929 65.7891 913.013 65.9489 912.097 66.098C911.181 66.2259 910.35 66.343 909.604 66.4496C908.006 66.6839 906.61 67.0568 905.417 67.5682C904.224 68.0795 903.297 68.772 902.637 69.6456C901.976 70.4979 901.646 71.5632 901.646 72.8416C901.646 74.6953 902.317 76.1122 903.659 77.0923C905.023 78.0511 906.749 78.5305 908.837 78.5305ZM956.761 21.5455V87H943.146V21.5455H956.761ZM981.283 21.5455V87H967.668V21.5455H981.283Z" fill="white"/>
<path d="M273.356 87H258.526L281.122 21.5455H298.956L321.52 87H306.69L290.295 36.5028H289.783L273.356 87ZM272.429 61.272H307.457V72.0746H272.429V61.272ZM344.947 87.799C341.218 87.799 337.841 86.8402 334.815 84.9226C331.811 82.9837 329.425 80.1392 327.656 76.3892C325.909 72.6179 325.035 67.9943 325.035 62.5185C325.035 56.8935 325.941 52.2166 327.752 48.4879C329.563 44.7379 331.971 41.9361 334.975 40.0824C338.001 38.2074 341.314 37.2699 344.915 37.2699C347.663 37.2699 349.954 37.7386 351.786 38.6761C353.64 39.5923 355.131 40.7429 356.26 42.1278C357.411 43.4915 358.285 44.8338 358.881 46.1548H359.297V21.5455H372.88V87H359.457V79.1378H358.881C358.242 80.5014 357.336 81.8544 356.165 83.1967C355.014 84.5178 353.512 85.6151 351.658 86.4886C349.826 87.3622 347.589 87.799 344.947 87.799ZM349.261 76.9645C351.456 76.9645 353.309 76.3679 354.822 75.1747C356.356 73.9602 357.528 72.2663 358.338 70.093C359.169 67.9197 359.584 65.3736 359.584 62.4545C359.584 59.5355 359.18 57 358.37 54.848C357.56 52.696 356.388 51.0341 354.854 49.8622C353.32 48.6903 351.456 48.1044 349.261 48.1044C347.024 48.1044 345.138 48.7116 343.604 49.9261C342.07 51.1406 340.909 52.8239 340.121 54.9759C339.332 57.1278 338.938 59.6207 338.938 62.4545C338.938 65.3097 339.332 67.8345 340.121 70.0291C340.93 72.2024 342.091 73.907 343.604 75.1428C345.138 76.3572 347.024 76.9645 349.261 76.9645ZM429.841 37.9091L412.678 87H397.337L380.175 37.9091H394.557L404.752 73.0334H405.263L415.427 37.9091H429.841ZM457.598 87.9588C452.549 87.9588 448.202 86.9361 444.559 84.8906C440.936 82.8239 438.145 79.9048 436.185 76.1335C434.225 72.3409 433.245 67.8558 433.245 62.6783C433.245 57.6286 434.225 53.1967 436.185 49.3828C438.145 45.5689 440.904 42.5966 444.463 40.4659C448.042 38.3352 452.24 37.2699 457.055 37.2699C460.294 37.2699 463.309 37.7919 466.1 38.8359C468.912 39.8587 471.363 41.4034 473.451 43.4702C475.56 45.5369 477.201 48.1364 478.373 51.2685C479.544 54.3793 480.13 58.0227 480.13 62.1989V65.9382H438.678V57.5007H467.314C467.314 55.5405 466.888 53.804 466.036 52.2912C465.184 50.7784 464.001 49.5959 462.488 48.7436C460.997 47.87 459.26 47.4332 457.279 47.4332C455.212 47.4332 453.38 47.9126 451.782 48.8714C450.205 49.8089 448.969 51.0767 448.074 52.6747C447.179 54.2514 446.721 56.0092 446.7 57.9482V65.9702C446.7 68.3991 447.147 70.4979 448.042 72.2663C448.958 74.0348 450.248 75.3984 451.909 76.3572C453.571 77.3161 455.542 77.7955 457.822 77.7955C459.335 77.7955 460.72 77.5824 461.977 77.1562C463.234 76.7301 464.31 76.0909 465.205 75.2386C466.1 74.3864 466.782 73.3423 467.25 72.1065L479.843 72.9375C479.203 75.9631 477.893 78.6051 475.912 80.8636C473.951 83.1009 471.416 84.848 468.305 86.1051C465.216 87.3409 461.647 87.9588 457.598 87.9588ZM502.63 58.6193V87H489.015V37.9091H501.991V46.5703H502.566C503.653 43.7152 505.475 41.4567 508.032 39.7947C510.588 38.1115 513.689 37.2699 517.332 37.2699C520.741 37.2699 523.713 38.0156 526.249 39.5071C528.784 40.9986 530.755 43.1293 532.162 45.8991C533.568 48.6477 534.271 51.929 534.271 55.7429V87H520.656V58.1719C520.677 55.1676 519.91 52.8239 518.355 51.1406C516.799 49.4361 514.658 48.5838 511.931 48.5838C510.098 48.5838 508.479 48.978 507.073 49.7663C505.688 50.5547 504.601 51.7053 503.813 53.218C503.046 54.7095 502.652 56.5099 502.63 58.6193ZM571.113 37.9091V48.1364H541.55V37.9091H571.113ZM548.262 26.1477H561.877V71.9148C561.877 73.1719 562.068 74.152 562.452 74.8551C562.835 75.5369 563.368 76.0163 564.05 76.2933C564.753 76.5703 565.563 76.7088 566.479 76.7088C567.118 76.7088 567.757 76.6555 568.396 76.549C569.036 76.4212 569.526 76.3253 569.867 76.2614L572.008 86.3928C571.326 86.6058 570.367 86.8509 569.132 87.1278C567.896 87.4261 566.394 87.6072 564.625 87.6712C561.344 87.799 558.468 87.3622 555.996 86.3608C553.546 85.3594 551.639 83.804 550.275 81.6946C548.911 79.5852 548.24 76.9219 548.262 73.7045V26.1477ZM611.463 66.098V37.9091H625.078V87H612.006V78.0831H611.495C610.387 80.9595 608.544 83.2713 605.966 85.0185C603.409 86.7656 600.287 87.6392 596.601 87.6392C593.32 87.6392 590.433 86.8935 587.94 85.402C585.447 83.9105 583.498 81.7905 582.091 79.0419C580.706 76.2933 580.003 73.0014 579.982 69.1662V37.9091H593.597V66.7372C593.618 69.6349 594.396 71.9254 595.93 73.6087C597.464 75.2919 599.52 76.1335 602.099 76.1335C603.739 76.1335 605.273 75.7607 606.701 75.0149C608.128 74.2479 609.279 73.1186 610.153 71.6271C611.047 70.1357 611.484 68.2926 611.463 66.098ZM635.968 87V37.9091H649.168V46.4744H649.679C650.574 43.4276 652.076 41.1264 654.186 39.571C656.295 37.9943 658.724 37.206 661.473 37.206C662.154 37.206 662.89 37.2486 663.678 37.3338C664.466 37.419 665.159 37.5362 665.755 37.6854V49.7663C665.116 49.5746 664.232 49.4041 663.103 49.255C661.973 49.1058 660.94 49.0312 660.002 49.0312C658 49.0312 656.21 49.468 654.633 50.3416C653.078 51.1939 651.842 52.3871 650.926 53.9212C650.031 55.4553 649.583 57.2237 649.583 59.2266V87H635.968ZM692.882 87.9588C687.832 87.9588 683.485 86.9361 679.842 84.8906C676.22 82.8239 673.428 79.9048 671.468 76.1335C669.508 72.3409 668.528 67.8558 668.528 62.6783C668.528 57.6286 669.508 53.1967 671.468 49.3828C673.428 45.5689 676.188 42.5966 679.746 40.4659C683.325 38.3352 687.523 37.2699 692.338 37.2699C695.577 37.2699 698.592 37.7919 701.383 38.8359C704.195 39.8587 706.646 41.4034 708.734 43.4702C710.843 45.5369 712.484 48.1364 713.656 51.2685C714.828 54.3793 715.414 58.0227 715.414 62.1989V65.9382H673.961V57.5007H702.597C702.597 55.5405 702.171 53.804 701.319 52.2912C700.467 50.7784 699.284 49.5959 697.771 48.7436C696.28 47.87 694.544 47.4332 692.562 47.4332C690.495 47.4332 688.663 47.9126 687.065 48.8714C685.488 49.8089 684.252 51.0767 683.357 52.6747C682.463 54.2514 682.004 56.0092 681.983 57.9482V65.9702C681.983 68.3991 682.431 70.4979 683.325 72.2663C684.242 74.0348 685.531 75.3984 687.193 76.3572C688.855 77.3161 690.825 77.7955 693.105 77.7955C694.618 77.7955 696.003 77.5824 697.26 77.1562C698.517 76.7301 699.593 76.0909 700.488 75.2386C701.383 74.3864 702.065 73.3423 702.534 72.1065L715.126 72.9375C714.487 75.9631 713.176 78.6051 711.195 80.8636C709.235 83.1009 706.699 84.848 703.588 86.1051C700.499 87.3409 696.93 87.9588 692.882 87.9588Z" fill="#FF9900"/>
<path d="M1089 106.471C1089 110.889 1092.58 114.471 1097 114.471C1101.42 114.471 1105 110.889 1105 106.471C1105 102.052 1101.42 98.4707 1097 98.4707C1092.58 98.4707 1089 102.052 1089 106.471ZM12 107.971H1097V104.971H12V107.971ZM3.5 172.452V116.471H0.5V172.452H3.5ZM248.801 180.952H12V183.952H248.801V180.952ZM12 198.782H248.801V195.782H12V198.782ZM3.5 278.114V207.282H0.5L0.5 278.114H3.5ZM248.338 286.614H12V289.614H248.338V286.614ZM12 305.37H248.338V302.37H12V305.37ZM3.5 386.555V313.87H0.5V386.555H3.5ZM247.874 395.055H12V398.055H247.874V395.055ZM12 414.739H247.874V411.739H12V414.739ZM3.5 492.217L3.5 423.239H0.5L0.5 492.217H3.5ZM248.338 500.717H12V503.717H248.338V500.717ZM12 519.473H248.338V516.473H12V519.473ZM3.5 601.585V527.973H0.5V601.585H3.5ZM248.338 610.085H12V613.085H248.338V610.085ZM2 628.842H248.338V625.842H2V628.842ZM248.338 628.842C253.517 628.842 257.716 624.643 257.716 619.463H254.716C254.716 622.986 251.86 625.842 248.338 625.842V628.842ZM248.338 613.085C251.86 613.085 254.716 615.941 254.716 619.463H257.716C257.716 614.284 253.517 610.085 248.338 610.085V613.085ZM0.5 601.585C0.5 607.936 5.64871 613.085 12 613.085V610.085C7.30557 610.085 3.5 606.28 3.5 601.585H0.5ZM12 516.473C5.64872 516.473 0.5 521.622 0.5 527.973H3.5C3.5 523.279 7.30558 519.473 12 519.473V516.473ZM254.716 510.095C254.716 513.617 251.86 516.473 248.338 516.473V519.473C253.517 519.473 257.716 515.274 257.716 510.095H254.716ZM248.338 503.717C251.86 503.717 254.716 506.572 254.716 510.095H257.716C257.716 504.915 253.517 500.717 248.338 500.717V503.717ZM0.5 492.217C0.5 498.568 5.64871 503.717 12 503.717V500.717C7.30557 500.717 3.5 496.911 3.5 492.217H0.5ZM12 411.739C5.64872 411.739 0.5 416.887 0.5 423.239H3.5C3.5 418.544 7.30558 414.739 12 414.739V411.739ZM254.716 404.897C254.716 408.676 251.653 411.739 247.874 411.739V414.739C253.31 414.739 257.716 410.332 257.716 404.897H254.716ZM247.874 398.055C251.653 398.055 254.716 401.118 254.716 404.897H257.716C257.716 399.462 253.31 395.055 247.874 395.055V398.055ZM0.5 386.555C0.5 392.907 5.64871 398.055 12 398.055V395.055C7.30557 395.055 3.5 391.25 3.5 386.555H0.5ZM12 302.37C5.64873 302.37 0.5 307.519 0.5 313.87H3.5C3.5 309.176 7.30558 305.37 12 305.37V302.37ZM254.716 295.992C254.716 299.515 251.86 302.37 248.338 302.37V305.37C253.517 305.37 257.716 301.171 257.716 295.992H254.716ZM248.338 289.614C251.86 289.614 254.716 292.469 254.716 295.992H257.716C257.716 290.812 253.517 286.614 248.338 286.614V289.614ZM0.5 278.114C0.5 284.465 5.64871 289.614 12 289.614V286.614C7.30557 286.614 3.5 282.808 3.5 278.114H0.5ZM12 195.782C5.64873 195.782 0.5 200.931 0.5 207.282H3.5C3.5 202.588 7.30558 198.782 12 198.782V195.782ZM254.716 189.867C254.716 193.134 252.068 195.782 248.801 195.782V198.782C253.725 198.782 257.716 194.791 257.716 189.867H254.716ZM248.801 183.952C252.068 183.952 254.716 186.601 254.716 189.867H257.716C257.716 184.944 253.725 180.952 248.801 180.952V183.952ZM0.5 172.452C0.5 178.804 5.64871 183.952 12 183.952V180.952C7.30557 180.952 3.5 177.147 3.5 172.452H0.5ZM12 104.971C5.64872 104.971 0.5 110.119 0.5 116.471H3.5C3.5 111.776 7.30558 107.971 12 107.971V104.971Z" fill="white"/>
<circle cx="280.525" cy="189.953" r="9.26923" fill="#FF9900"/>
<circle cx="280.525" cy="297.476" r="9.26923" fill="#FF9900"/>
<circle cx="280.525" cy="405.002" r="9.26923" fill="#FF9900"/>
<circle cx="280.525" cy="512.521" r="9.26923" fill="#FF9900"/>
<circle cx="280.525" cy="620.045" r="9.26923" fill="#FF9900"/>
<path d="M311.704 167.694H316.255L321.062 179.421H321.267L326.073 167.694H330.624V185.148H327.045V173.788H326.9L322.383 185.063H319.946L315.428 173.745H315.284V185.148H311.704V167.694ZM336.673 185.148H332.719L338.745 167.694H343.5L349.517 185.148H345.563L341.191 171.683H341.054L336.673 185.148ZM336.426 178.288H345.767V181.168H336.426V178.288ZM360.688 172.714C360.62 172.026 360.328 171.492 359.811 171.112C359.294 170.731 358.592 170.54 357.705 170.54C357.103 170.54 356.595 170.626 356.18 170.796C355.765 170.961 355.447 171.191 355.225 171.487C355.009 171.782 354.901 172.117 354.901 172.492C354.89 172.805 354.955 173.077 355.097 173.31C355.245 173.543 355.447 173.745 355.703 173.915C355.958 174.08 356.254 174.225 356.589 174.35C356.924 174.469 357.282 174.572 357.663 174.657L359.231 175.032C359.992 175.202 360.691 175.43 361.328 175.714C361.964 175.998 362.515 176.347 362.981 176.762C363.447 177.177 363.808 177.665 364.063 178.228C364.325 178.79 364.458 179.435 364.464 180.163C364.458 181.231 364.186 182.157 363.646 182.941C363.112 183.719 362.339 184.325 361.328 184.756C360.322 185.183 359.109 185.396 357.688 185.396C356.279 185.396 355.052 185.18 354.007 184.748C352.967 184.316 352.154 183.677 351.569 182.83C350.99 181.978 350.686 180.924 350.657 179.668H354.228C354.268 180.254 354.436 180.742 354.731 181.134C355.032 181.521 355.433 181.813 355.933 182.012C356.438 182.205 357.009 182.302 357.646 182.302C358.271 182.302 358.813 182.211 359.274 182.029C359.74 181.847 360.1 181.594 360.356 181.271C360.612 180.947 360.74 180.575 360.74 180.154C360.74 179.762 360.623 179.433 360.39 179.165C360.163 178.898 359.828 178.671 359.384 178.484C358.947 178.296 358.41 178.126 357.774 177.972L355.873 177.495C354.401 177.137 353.24 176.577 352.387 175.816C351.535 175.055 351.112 174.029 351.117 172.739C351.112 171.683 351.393 170.759 351.961 169.969C352.535 169.18 353.322 168.563 354.322 168.12C355.322 167.677 356.458 167.455 357.731 167.455C359.026 167.455 360.157 167.677 361.123 168.12C362.095 168.563 362.85 169.18 363.39 169.969C363.93 170.759 364.208 171.674 364.225 172.714H360.688ZM376.415 172.714C376.347 172.026 376.054 171.492 375.537 171.112C375.02 170.731 374.318 170.54 373.432 170.54C372.83 170.54 372.321 170.626 371.906 170.796C371.492 170.961 371.173 171.191 370.952 171.487C370.736 171.782 370.628 172.117 370.628 172.492C370.617 172.805 370.682 173.077 370.824 173.31C370.972 173.543 371.173 173.745 371.429 173.915C371.685 174.08 371.98 174.225 372.316 174.35C372.651 174.469 373.009 174.572 373.389 174.657L374.958 175.032C375.719 175.202 376.418 175.43 377.054 175.714C377.691 175.998 378.242 176.347 378.708 176.762C379.173 177.177 379.534 177.665 379.79 178.228C380.051 178.79 380.185 179.435 380.191 180.163C380.185 181.231 379.912 182.157 379.372 182.941C378.838 183.719 378.066 184.325 377.054 184.756C376.048 185.183 374.835 185.396 373.415 185.396C372.006 185.396 370.779 185.18 369.733 184.748C368.693 184.316 367.881 183.677 367.296 182.83C366.716 181.978 366.412 180.924 366.384 179.668H369.955C369.995 180.254 370.162 180.742 370.458 181.134C370.759 181.521 371.159 181.813 371.659 182.012C372.165 182.205 372.736 182.302 373.372 182.302C373.997 182.302 374.54 182.211 375 182.029C375.466 181.847 375.827 181.594 376.083 181.271C376.338 180.947 376.466 180.575 376.466 180.154C376.466 179.762 376.35 179.433 376.117 179.165C375.889 178.898 375.554 178.671 375.111 178.484C374.673 178.296 374.137 178.126 373.5 177.972L371.6 177.495C370.128 177.137 368.966 176.577 368.114 175.816C367.262 175.055 366.838 174.029 366.844 172.739C366.838 171.683 367.12 170.759 367.688 169.969C368.262 169.18 369.048 168.563 370.048 168.12C371.048 167.677 372.185 167.455 373.458 167.455C374.753 167.455 375.884 167.677 376.85 168.12C377.821 168.563 378.577 169.18 379.117 169.969C379.656 170.759 379.935 171.674 379.952 172.714H376.415ZM386.363 167.694V185.148H382.673V167.694H386.363ZM392.553 167.694L396.771 180.955H396.933L401.161 167.694H405.252L399.235 185.148H394.479L388.453 167.694H392.553ZM407.352 185.148V167.694H419.114V170.737H411.043V174.896H418.509V177.938H411.043V182.106H419.148V185.148H407.352Z" fill="white"/>
<path d="M443.642 176.421C443.642 178.325 443.281 179.944 442.56 181.279C441.844 182.614 440.867 183.634 439.628 184.339C438.395 185.038 437.009 185.387 435.469 185.387C433.918 185.387 432.526 185.035 431.293 184.33C430.06 183.626 429.085 182.606 428.37 181.271C427.654 179.935 427.296 178.319 427.296 176.421C427.296 174.518 427.654 172.898 428.37 171.563C429.085 170.228 430.06 169.211 431.293 168.512C432.526 167.808 433.918 167.455 435.469 167.455C437.009 167.455 438.395 167.808 439.628 168.512C440.867 169.211 441.844 170.228 442.56 171.563C443.281 172.898 443.642 174.518 443.642 176.421ZM439.901 176.421C439.901 175.188 439.716 174.148 439.347 173.302C438.983 172.455 438.469 171.813 437.804 171.376C437.139 170.938 436.361 170.719 435.469 170.719C434.577 170.719 433.798 170.938 433.134 171.376C432.469 171.813 431.952 172.455 431.583 173.302C431.219 174.148 431.037 175.188 431.037 176.421C431.037 177.654 431.219 178.694 431.583 179.54C431.952 180.387 432.469 181.029 433.134 181.467C433.798 181.904 434.577 182.123 435.469 182.123C436.361 182.123 437.139 181.904 437.804 181.467C438.469 181.029 438.983 180.387 439.347 179.54C439.716 178.694 439.901 177.654 439.901 176.421ZM446.376 185.148V167.694H453.262C454.586 167.694 455.714 167.947 456.646 168.452C457.578 168.952 458.288 169.648 458.776 170.54C459.271 171.427 459.518 172.45 459.518 173.609C459.518 174.768 459.268 175.79 458.768 176.677C458.268 177.563 457.544 178.254 456.595 178.748C455.651 179.242 454.509 179.489 453.169 179.489H448.779V176.532H452.572C453.282 176.532 453.867 176.41 454.328 176.165C454.794 175.915 455.14 175.572 455.367 175.134C455.6 174.691 455.717 174.183 455.717 173.609C455.717 173.029 455.6 172.523 455.367 172.092C455.14 171.654 454.794 171.316 454.328 171.077C453.862 170.833 453.271 170.711 452.555 170.711H450.066V185.148H446.376ZM461.915 185.148V167.694H473.676V170.737H465.605V174.896H473.071V177.938H465.605V182.106H473.71V185.148H461.915ZM491.21 167.694V185.148H488.022L480.428 174.163H480.301V185.148H476.61V167.694H479.849L487.383 178.671H487.536V167.694H491.21ZM502.822 185.148H498.867L504.893 167.694H509.649L515.666 185.148H511.711L507.339 171.683H507.203L502.822 185.148ZM502.575 178.288H511.916V181.168H502.575V178.288ZM517.767 185.148V167.694H524.653C525.971 167.694 527.096 167.93 528.028 168.401C528.965 168.867 529.678 169.529 530.167 170.387C530.661 171.239 530.909 172.242 530.909 173.396C530.909 174.555 530.659 175.552 530.159 176.387C529.659 177.217 528.934 177.853 527.985 178.296C527.042 178.739 525.9 178.961 524.559 178.961H519.948V175.995H523.963C524.667 175.995 525.252 175.898 525.718 175.705C526.184 175.512 526.531 175.222 526.758 174.836C526.991 174.45 527.107 173.969 527.107 173.396C527.107 172.816 526.991 172.327 526.758 171.93C526.531 171.532 526.181 171.231 525.71 171.026C525.244 170.816 524.656 170.711 523.946 170.711H521.457V185.148H517.767ZM527.193 177.205L531.531 185.148H527.457L523.213 177.205H527.193ZM533.517 185.148V167.694H545.278V170.737H537.207V174.896H544.673V177.938H537.207V182.106H545.312V185.148H533.517ZM551.22 185.148H547.266L553.291 167.694H558.047L564.064 185.148H560.11L555.737 171.683H555.601L551.22 185.148ZM550.973 178.288H560.314V181.168H550.973V178.288ZM575.235 172.714C575.167 172.026 574.874 171.492 574.357 171.112C573.84 170.731 573.139 170.54 572.252 170.54C571.65 170.54 571.142 170.626 570.727 170.796C570.312 170.961 569.994 171.191 569.772 171.487C569.556 171.782 569.448 172.117 569.448 172.492C569.437 172.805 569.502 173.077 569.644 173.31C569.792 173.543 569.994 173.745 570.249 173.915C570.505 174.08 570.801 174.225 571.136 174.35C571.471 174.469 571.829 174.572 572.21 174.657L573.778 175.032C574.539 175.202 575.238 175.43 575.874 175.714C576.511 175.998 577.062 176.347 577.528 176.762C577.994 177.177 578.355 177.665 578.61 178.228C578.872 178.79 579.005 179.435 579.011 180.163C579.005 181.231 578.732 182.157 578.193 182.941C577.659 183.719 576.886 184.325 575.874 184.756C574.869 185.183 573.656 185.396 572.235 185.396C570.826 185.396 569.599 185.18 568.553 184.748C567.514 184.316 566.701 183.677 566.116 182.83C565.536 181.978 565.232 180.924 565.204 179.668H568.775C568.815 180.254 568.982 180.742 569.278 181.134C569.579 181.521 569.98 181.813 570.48 182.012C570.985 182.205 571.556 182.302 572.193 182.302C572.818 182.302 573.36 182.211 573.821 182.029C574.286 181.847 574.647 181.594 574.903 181.271C575.159 180.947 575.286 180.575 575.286 180.154C575.286 179.762 575.17 179.433 574.937 179.165C574.71 178.898 574.374 178.671 573.931 178.484C573.494 178.296 572.957 178.126 572.321 177.972L570.42 177.495C568.948 177.137 567.786 176.577 566.934 175.816C566.082 175.055 565.659 174.029 565.664 172.739C565.659 171.683 565.94 170.759 566.508 169.969C567.082 169.18 567.869 168.563 568.869 168.12C569.869 167.677 571.005 167.455 572.278 167.455C573.573 167.455 574.704 167.677 575.67 168.12C576.642 168.563 577.397 169.18 577.937 169.969C578.477 170.759 578.755 171.674 578.772 172.714H575.235Z" fill="#A0A0A0"/>
<path d="M314.713 292.668H310.758L316.784 275.213H321.539L327.556 292.668H323.602L319.23 279.202H319.093L314.713 292.668ZM314.465 285.807H323.806V288.688H314.465V285.807ZM344.237 281.324H340.504C340.436 280.841 340.297 280.412 340.087 280.037C339.877 279.657 339.607 279.333 339.277 279.066C338.948 278.799 338.567 278.594 338.135 278.452C337.709 278.31 337.246 278.239 336.746 278.239C335.843 278.239 335.056 278.463 334.385 278.912C333.715 279.355 333.195 280.003 332.825 280.855C332.456 281.702 332.271 282.73 332.271 283.941C332.271 285.185 332.456 286.23 332.825 287.077C333.2 287.924 333.723 288.563 334.394 288.995C335.064 289.426 335.84 289.642 336.72 289.642C337.215 289.642 337.672 289.577 338.093 289.446C338.519 289.316 338.896 289.125 339.226 288.875C339.556 288.62 339.828 288.31 340.044 287.946C340.266 287.583 340.419 287.168 340.504 286.702L344.237 286.719C344.141 287.52 343.899 288.293 343.513 289.037C343.132 289.776 342.618 290.438 341.97 291.023C341.328 291.603 340.561 292.063 339.669 292.404C338.783 292.739 337.78 292.907 336.661 292.907C335.104 292.907 333.712 292.554 332.485 291.85C331.263 291.145 330.297 290.125 329.587 288.79C328.882 287.455 328.53 285.838 328.53 283.941C328.53 282.037 328.888 280.418 329.604 279.083C330.32 277.748 331.291 276.73 332.519 276.032C333.746 275.327 335.127 274.975 336.661 274.975C337.672 274.975 338.61 275.117 339.473 275.401C340.343 275.685 341.112 276.1 341.783 276.645C342.453 277.185 342.999 277.847 343.419 278.631C343.845 279.415 344.118 280.313 344.237 281.324ZM346.219 278.256V275.213H360.554V278.256H355.21V292.668H351.563V278.256H346.219ZM366.605 275.213V292.668H362.915V275.213H366.605ZM385.681 283.941C385.681 285.844 385.321 287.463 384.599 288.799C383.883 290.134 382.906 291.154 381.667 291.858C380.434 292.557 379.048 292.907 377.508 292.907C375.957 292.907 374.565 292.554 373.332 291.85C372.099 291.145 371.124 290.125 370.409 288.79C369.693 287.455 369.335 285.838 369.335 283.941C369.335 282.037 369.693 280.418 370.409 279.083C371.124 277.748 372.099 276.73 373.332 276.032C374.565 275.327 375.957 274.975 377.508 274.975C379.048 274.975 380.434 275.327 381.667 276.032C382.906 276.73 383.883 277.748 384.599 279.083C385.321 280.418 385.681 282.037 385.681 283.941ZM381.94 283.941C381.94 282.708 381.755 281.668 381.386 280.821C381.022 279.975 380.508 279.333 379.843 278.895C379.178 278.458 378.4 278.239 377.508 278.239C376.616 278.239 375.838 278.458 375.173 278.895C374.508 279.333 373.991 279.975 373.622 280.821C373.258 281.668 373.076 282.708 373.076 283.941C373.076 285.174 373.258 286.213 373.622 287.06C373.991 287.907 374.508 288.549 375.173 288.986C375.838 289.424 376.616 289.642 377.508 289.642C378.4 289.642 379.178 289.424 379.843 288.986C380.508 288.549 381.022 287.907 381.386 287.06C381.755 286.213 381.94 285.174 381.94 283.941ZM403.014 275.213V292.668H399.827L392.233 281.682H392.105V292.668H388.415V275.213H391.654L399.188 286.191H399.341V275.213H403.014Z" fill="white"/>
<path d="M411.618 292.668V275.213H418.504C419.828 275.213 420.956 275.466 421.888 275.972C422.82 276.472 423.53 277.168 424.019 278.06C424.513 278.946 424.76 279.969 424.76 281.128C424.76 282.287 424.51 283.31 424.01 284.196C423.51 285.083 422.786 285.773 421.837 286.267C420.894 286.762 419.752 287.009 418.411 287.009H414.021V284.051H417.814C418.524 284.051 419.11 283.929 419.57 283.685C420.036 283.435 420.382 283.091 420.61 282.654C420.843 282.211 420.959 281.702 420.959 281.128C420.959 280.549 420.843 280.043 420.61 279.611C420.382 279.174 420.036 278.836 419.57 278.597C419.104 278.353 418.513 278.23 417.797 278.23H415.308V292.668H411.618ZM428.15 292.668H424.196L430.221 275.213H434.977L440.994 292.668H437.039L432.667 279.202H432.531L428.15 292.668ZM427.903 285.807H437.244V288.688H427.903V285.807ZM457.675 281.324H453.942C453.874 280.841 453.735 280.412 453.524 280.037C453.314 279.657 453.044 279.333 452.715 279.066C452.385 278.799 452.004 278.594 451.573 278.452C451.146 278.31 450.683 278.239 450.183 278.239C449.28 278.239 448.493 278.463 447.823 278.912C447.152 279.355 446.632 280.003 446.263 280.855C445.894 281.702 445.709 282.73 445.709 283.941C445.709 285.185 445.894 286.23 446.263 287.077C446.638 287.924 447.161 288.563 447.831 288.995C448.502 289.426 449.277 289.642 450.158 289.642C450.652 289.642 451.11 289.577 451.53 289.446C451.956 289.316 452.334 289.125 452.664 288.875C452.993 288.62 453.266 288.31 453.482 287.946C453.703 287.583 453.857 287.168 453.942 286.702L457.675 286.719C457.578 287.52 457.337 288.293 456.95 289.037C456.57 289.776 456.056 290.438 455.408 291.023C454.766 291.603 453.999 292.063 453.107 292.404C452.22 292.739 451.218 292.907 450.098 292.907C448.541 292.907 447.149 292.554 445.922 291.85C444.7 291.145 443.735 290.125 443.024 288.79C442.32 287.455 441.968 285.838 441.968 283.941C441.968 282.037 442.325 280.418 443.041 279.083C443.757 277.748 444.729 276.73 445.956 276.032C447.183 275.327 448.564 274.975 450.098 274.975C451.11 274.975 452.047 275.117 452.911 275.401C453.78 275.685 454.55 276.1 455.22 276.645C455.891 277.185 456.436 277.847 456.857 278.631C457.283 279.415 457.556 280.313 457.675 281.324ZM460.321 292.668V275.213H464.012V282.909H464.242L470.523 275.213H474.946L468.469 283.029L475.023 292.668H470.608L465.827 285.492L464.012 287.708V292.668H460.321ZM476.868 292.668V275.213H488.629V278.256H480.558V282.415H488.024V285.458H480.558V289.625H488.664V292.668H476.868ZM497.751 292.668H491.563V275.213H497.802C499.558 275.213 501.069 275.563 502.336 276.262C503.603 276.955 504.578 277.952 505.259 279.253C505.947 280.554 506.291 282.111 506.291 283.924C506.291 285.742 505.947 287.304 505.259 288.611C504.578 289.918 503.597 290.921 502.319 291.62C501.046 292.319 499.524 292.668 497.751 292.668ZM495.254 289.506H497.597C498.688 289.506 499.606 289.313 500.35 288.926C501.1 288.534 501.663 287.929 502.038 287.111C502.419 286.287 502.609 285.225 502.609 283.924C502.609 282.634 502.419 281.58 502.038 280.762C501.663 279.944 501.103 279.341 500.359 278.955C499.615 278.569 498.697 278.375 497.606 278.375H495.254V289.506ZM526.153 280.855C526.034 280.441 525.866 280.074 525.65 279.756C525.434 279.432 525.17 279.159 524.857 278.938C524.551 278.711 524.198 278.537 523.801 278.418C523.409 278.299 522.974 278.239 522.497 278.239C521.605 278.239 520.821 278.461 520.144 278.904C519.474 279.347 518.951 279.992 518.576 280.838C518.201 281.679 518.014 282.708 518.014 283.924C518.014 285.14 518.198 286.174 518.568 287.026C518.937 287.878 519.46 288.529 520.136 288.978C520.812 289.421 521.61 289.642 522.531 289.642C523.366 289.642 524.079 289.495 524.67 289.199C525.267 288.898 525.721 288.475 526.034 287.929C526.352 287.384 526.511 286.739 526.511 285.995L527.261 286.105H522.761V283.327H530.065V285.526C530.065 287.06 529.741 288.378 529.093 289.48C528.446 290.577 527.553 291.424 526.417 292.02C525.281 292.611 523.98 292.907 522.514 292.907C520.877 292.907 519.44 292.546 518.201 291.824C516.963 291.097 515.997 290.066 515.303 288.73C514.616 287.39 514.272 285.799 514.272 283.958C514.272 282.543 514.477 281.282 514.886 280.174C515.301 279.06 515.88 278.117 516.624 277.344C517.369 276.571 518.235 275.983 519.224 275.58C520.213 275.176 521.284 274.975 522.437 274.975C523.426 274.975 524.346 275.12 525.198 275.409C526.051 275.694 526.806 276.097 527.465 276.62C528.13 277.142 528.673 277.765 529.093 278.486C529.514 279.202 529.784 279.992 529.903 280.855H526.153ZM535.306 292.668H531.352L537.377 275.213H542.133L548.15 292.668H544.196L539.823 279.202H539.687L535.306 292.668ZM535.059 285.807H544.4V288.688H535.059V285.807ZM550.251 275.213H554.802L559.609 286.941H559.813L564.62 275.213H569.171V292.668H565.592V281.307H565.447L560.93 292.583H558.492L553.975 281.265H553.83V292.668H550.251V275.213ZM572.212 292.668V275.213H583.973V278.256H575.902V282.415H583.368V285.458H575.902V289.625H584.007V292.668H572.212ZM586.907 292.668V275.213H593.794C595.117 275.213 596.245 275.466 597.177 275.972C598.109 276.472 598.819 277.168 599.308 278.06C599.802 278.946 600.049 279.969 600.049 281.128C600.049 282.287 599.799 283.31 599.299 284.196C598.799 285.083 598.075 285.773 597.126 286.267C596.183 286.762 595.041 287.009 593.7 287.009H589.311V284.051H593.103C593.813 284.051 594.399 283.929 594.859 283.685C595.325 283.435 595.671 283.091 595.899 282.654C596.132 282.211 596.248 281.702 596.248 281.128C596.248 280.549 596.132 280.043 595.899 279.611C595.671 279.174 595.325 278.836 594.859 278.597C594.393 278.353 593.802 278.23 593.086 278.23H590.597V292.668H586.907ZM602.446 292.668V275.213H606.137V289.625H613.62V292.668H602.446ZM619.517 292.668H615.563L621.588 275.213H626.344L632.361 292.668H628.406L624.034 279.202H623.898L619.517 292.668ZM619.27 285.807H628.611V288.688H619.27V285.807ZM631.658 275.213H635.791L639.771 282.73H639.942L643.922 275.213H648.056L641.689 286.498V292.668H638.024V286.498L631.658 275.213Z" fill="#A0A0A0"/>
<path d="M311.704 400.191V382.737H323.261V385.779H315.394V389.939H322.494V392.981H315.394V400.191H311.704ZM325.743 400.191V382.737H332.629C333.948 382.737 335.073 382.973 336.004 383.444C336.942 383.91 337.655 384.572 338.144 385.43C338.638 386.282 338.885 387.285 338.885 388.439C338.885 389.598 338.635 390.595 338.135 391.43C337.635 392.26 336.911 392.896 335.962 393.339C335.019 393.782 333.877 394.004 332.536 394.004H327.925V391.038H331.939C332.644 391.038 333.229 390.941 333.695 390.748C334.161 390.555 334.507 390.265 334.735 389.879C334.968 389.493 335.084 389.012 335.084 388.439C335.084 387.859 334.968 387.37 334.735 386.973C334.507 386.575 334.158 386.274 333.686 386.069C333.22 385.859 332.632 385.754 331.922 385.754H329.433V400.191H325.743ZM335.169 392.248L339.507 400.191H335.433L331.189 392.248H335.169ZM341.493 400.191V382.737H353.254V385.779H345.183V389.939H352.649V392.981H345.183V397.149H353.289V400.191H341.493ZM356.188 400.191V382.737H367.95V385.779H359.879V389.939H367.345V392.981H359.879V397.149H367.984V400.191H356.188Z" fill="white"/>
<path d="M375.774 385.779V382.737H390.109V385.779H384.765V400.191H381.117V385.779H375.774ZM407.713 391.464C407.713 393.368 407.352 394.987 406.63 396.322C405.914 397.657 404.937 398.677 403.698 399.382C402.465 400.081 401.079 400.43 399.539 400.43C397.988 400.43 396.596 400.078 395.363 399.373C394.13 398.669 393.156 397.649 392.44 396.314C391.724 394.978 391.366 393.362 391.366 391.464C391.366 389.561 391.724 387.941 392.44 386.606C393.156 385.271 394.13 384.254 395.363 383.555C396.596 382.85 397.988 382.498 399.539 382.498C401.079 382.498 402.465 382.85 403.698 383.555C404.937 384.254 405.914 385.271 406.63 386.606C407.352 387.941 407.713 389.561 407.713 391.464ZM403.971 391.464C403.971 390.231 403.786 389.191 403.417 388.345C403.053 387.498 402.539 386.856 401.874 386.419C401.21 385.981 400.431 385.762 399.539 385.762C398.647 385.762 397.869 385.981 397.204 386.419C396.539 386.856 396.022 387.498 395.653 388.345C395.289 389.191 395.107 390.231 395.107 391.464C395.107 392.697 395.289 393.737 395.653 394.583C396.022 395.43 396.539 396.072 397.204 396.51C397.869 396.947 398.647 397.166 399.539 397.166C400.431 397.166 401.21 396.947 401.874 396.51C402.539 396.072 403.053 395.43 403.417 394.583C403.786 393.737 403.971 392.697 403.971 391.464ZM416.001 400.191V382.737H422.887C424.211 382.737 425.339 382.99 426.271 383.495C427.203 383.995 427.913 384.691 428.401 385.583C428.896 386.47 429.143 387.493 429.143 388.652C429.143 389.811 428.893 390.833 428.393 391.72C427.893 392.606 427.169 393.297 426.22 393.791C425.276 394.285 424.134 394.532 422.794 394.532H418.404V391.575H422.197C422.907 391.575 423.492 391.453 423.953 391.208C424.419 390.958 424.765 390.615 424.992 390.177C425.225 389.734 425.342 389.225 425.342 388.652C425.342 388.072 425.225 387.566 424.992 387.135C424.765 386.697 424.419 386.359 423.953 386.12C423.487 385.876 422.896 385.754 422.18 385.754H419.691V400.191H416.001ZM431.54 400.191V382.737H435.23V397.149H442.713V400.191H431.54ZM448.611 400.191H444.656L450.682 382.737H455.438L461.455 400.191H457.5L453.128 386.725H452.992L448.611 400.191ZM448.364 393.331H457.705V396.211H448.364V393.331ZM460.752 382.737H464.885L468.865 390.254H469.036L473.016 382.737H477.149L470.783 394.021V400.191H467.118V394.021L460.752 382.737Z" fill="#A0A0A0"/>
<path d="M326.303 490.26V507.715H323.116L315.522 496.729H315.394V507.715H311.704V490.26H314.943L322.477 501.238H322.63V490.26H326.303ZM329.352 507.715V490.26H341.114V493.303H333.043V497.462H340.509V500.505H333.043V504.672H341.148V507.715H329.352ZM347.201 490.26L351.42 503.522H351.582L355.809 490.26H359.9L353.883 507.715H349.127L343.102 490.26H347.201ZM362.001 507.715V490.26H373.762V493.303H365.691V497.462H373.157V500.505H365.691V504.672H373.796V507.715H362.001ZM376.696 507.715V490.26H383.583C384.901 490.26 386.026 490.496 386.958 490.968C387.895 491.434 388.608 492.096 389.097 492.953C389.591 493.806 389.838 494.809 389.838 495.962C389.838 497.121 389.588 498.118 389.088 498.953C388.588 499.783 387.864 500.419 386.915 500.863C385.972 501.306 384.83 501.527 383.489 501.527H378.878V498.561H382.892C383.597 498.561 384.182 498.465 384.648 498.272C385.114 498.078 385.46 497.789 385.688 497.402C385.921 497.016 386.037 496.536 386.037 495.962C386.037 495.382 385.921 494.894 385.688 494.496C385.46 494.098 385.111 493.797 384.639 493.593C384.173 493.382 383.585 493.277 382.875 493.277H380.387V507.715H376.696ZM386.122 499.772L390.46 507.715H386.387L382.142 499.772H386.122Z" fill="white"/>
<path d="M398.001 507.715V490.26H404.887C406.211 490.26 407.339 490.513 408.271 491.019C409.203 491.519 409.913 492.215 410.401 493.107C410.896 493.993 411.143 495.016 411.143 496.175C411.143 497.334 410.893 498.357 410.393 499.243C409.893 500.13 409.169 500.82 408.22 501.314C407.276 501.809 406.134 502.056 404.794 502.056H400.404V499.098H404.197C404.907 499.098 405.492 498.976 405.953 498.732C406.419 498.482 406.765 498.138 406.992 497.701C407.225 497.257 407.342 496.749 407.342 496.175C407.342 495.596 407.225 495.09 406.992 494.658C406.765 494.221 406.419 493.882 405.953 493.644C405.487 493.4 404.896 493.277 404.18 493.277H401.691V507.715H398.001ZM414.533 507.715H410.578L416.604 490.26H421.36L427.377 507.715H423.422L419.05 494.249H418.914L414.533 507.715ZM414.286 500.854H423.627V503.735H414.286V500.854ZM426.673 490.26H430.807L434.787 497.777H434.958L438.938 490.26H443.071L436.705 501.544V507.715H433.04V501.544L426.673 490.26ZM449.977 493.303V490.26H464.312V493.303H458.968V507.715H455.321V493.303H449.977ZM481.916 498.988C481.916 500.891 481.555 502.51 480.833 503.846C480.117 505.181 479.14 506.201 477.901 506.905C476.669 507.604 475.282 507.953 473.742 507.953C472.191 507.953 470.799 507.601 469.566 506.897C468.333 506.192 467.359 505.172 466.643 503.837C465.927 502.502 465.569 500.885 465.569 498.988C465.569 497.084 465.927 495.465 466.643 494.13C467.359 492.794 468.333 491.777 469.566 491.078C470.799 490.374 472.191 490.022 473.742 490.022C475.282 490.022 476.669 490.374 477.901 491.078C479.14 491.777 480.117 492.794 480.833 494.13C481.555 495.465 481.916 497.084 481.916 498.988ZM478.174 498.988C478.174 497.755 477.99 496.715 477.62 495.868C477.257 495.022 476.742 494.38 476.078 493.942C475.413 493.505 474.634 493.286 473.742 493.286C472.85 493.286 472.072 493.505 471.407 493.942C470.742 494.38 470.225 495.022 469.856 495.868C469.492 496.715 469.311 497.755 469.311 498.988C469.311 500.221 469.492 501.26 469.856 502.107C470.225 502.953 470.742 503.596 471.407 504.033C472.072 504.471 472.85 504.689 473.742 504.689C474.634 504.689 475.413 504.471 476.078 504.033C476.742 503.596 477.257 502.953 477.62 502.107C477.99 501.26 478.174 500.221 478.174 498.988ZM494.133 507.715L489.139 490.26H493.17L496.059 502.388H496.204L499.392 490.26H502.843L506.022 502.414H506.176L509.065 490.26H513.096L508.102 507.715H504.505L501.181 496.303H501.045L497.73 507.715H494.133ZM518.762 490.26V507.715H515.071V490.26H518.762ZM536.397 490.26V507.715H533.21L525.616 496.729H525.488V507.715H521.798V490.26H525.036L532.571 501.238H532.724V490.26H536.397Z" fill="#A0A0A0"/>
<path d="M311.704 615.24V597.786H318.59C319.914 597.786 321.042 598.039 321.974 598.544C322.906 599.044 323.616 599.74 324.105 600.632C324.599 601.519 324.846 602.541 324.846 603.7C324.846 604.86 324.596 605.882 324.096 606.769C323.596 607.655 322.872 608.345 321.923 608.84C320.98 609.334 319.838 609.581 318.497 609.581H314.107V606.624H317.9C318.61 606.624 319.196 606.502 319.656 606.257C320.122 606.007 320.468 605.664 320.696 605.226C320.928 604.783 321.045 604.274 321.045 603.7C321.045 603.121 320.928 602.615 320.696 602.183C320.468 601.746 320.122 601.408 319.656 601.169C319.19 600.925 318.599 600.803 317.883 600.803H315.394V615.24H311.704ZM327.243 615.24V597.786H330.933V612.198H338.416V615.24H327.243ZM344.314 615.24H340.36L346.385 597.786H351.141L357.158 615.24H353.203L348.831 601.774H348.695L344.314 615.24ZM344.067 608.379H353.408V611.26H344.067V608.379ZM356.455 597.786H360.588L364.568 605.303H364.739L368.719 597.786H372.852L366.486 609.07V615.24H362.821V609.07L356.455 597.786ZM374.868 615.24V597.786H386.629V600.828H378.558V604.987H386.024V608.03H378.558V612.198H386.664V615.24H374.868ZM389.563 615.24V597.786H396.45C397.768 597.786 398.893 598.021 399.825 598.493C400.762 598.959 401.475 599.621 401.964 600.479C402.458 601.331 402.705 602.334 402.705 603.487C402.705 604.646 402.455 605.644 401.955 606.479C401.455 607.308 400.731 607.945 399.782 608.388C398.839 608.831 397.697 609.053 396.356 609.053H391.745V606.087H395.759C396.464 606.087 397.049 605.99 397.515 605.797C397.981 605.604 398.328 605.314 398.555 604.928C398.788 604.541 398.904 604.061 398.904 603.487C398.904 602.908 398.788 602.419 398.555 602.021C398.328 601.624 397.978 601.323 397.507 601.118C397.041 600.908 396.453 600.803 395.742 600.803H393.254V615.24H389.563ZM398.99 607.297L403.328 615.24H399.254L395.009 607.297H398.99Z" fill="white"/>
<path d="M426.908 606.513C426.908 608.416 426.547 610.036 425.825 611.371C425.11 612.706 424.132 613.726 422.894 614.431C421.661 615.129 420.274 615.479 418.735 615.479C417.183 615.479 415.791 615.127 414.558 614.422C413.325 613.718 412.351 612.698 411.635 611.362C410.919 610.027 410.561 608.411 410.561 606.513C410.561 604.61 410.919 602.99 411.635 601.655C412.351 600.32 413.325 599.303 414.558 598.604C415.791 597.899 417.183 597.547 418.735 597.547C420.274 597.547 421.661 597.899 422.894 598.604C424.132 599.303 425.11 600.32 425.825 601.655C426.547 602.99 426.908 604.61 426.908 606.513ZM423.166 606.513C423.166 605.28 422.982 604.24 422.612 603.394C422.249 602.547 421.735 601.905 421.07 601.468C420.405 601.03 419.627 600.811 418.735 600.811C417.843 600.811 417.064 601.03 416.399 601.468C415.735 601.905 415.218 602.547 414.848 603.394C414.485 604.24 414.303 605.28 414.303 606.513C414.303 607.746 414.485 608.786 414.848 609.632C415.218 610.479 415.735 611.121 416.399 611.558C417.064 611.996 417.843 612.215 418.735 612.215C419.627 612.215 420.405 611.996 421.07 611.558C421.735 611.121 422.249 610.479 422.612 609.632C422.982 608.786 423.166 607.746 423.166 606.513ZM432.914 615.24L427.92 597.786H431.951L434.84 609.914H434.985L438.173 597.786H441.624L444.803 609.939H444.957L447.846 597.786H451.877L446.883 615.24H443.286L439.963 603.828H439.826L436.511 615.24H432.914ZM468.452 597.786V615.24H465.264L457.671 604.254H457.543V615.24H453.852V597.786H457.091L464.625 608.763H464.779V597.786H468.452ZM471.501 615.24V597.786H483.262V600.828H475.191V604.987H482.657V608.03H475.191V612.198H483.296V615.24H471.501ZM492.384 615.24H486.196V597.786H492.435C494.191 597.786 495.702 598.135 496.969 598.834C498.236 599.527 499.21 600.524 499.892 601.825C500.58 603.127 500.923 604.683 500.923 606.496C500.923 608.314 500.58 609.877 499.892 611.183C499.21 612.49 498.23 613.493 496.952 614.192C495.679 614.891 494.156 615.24 492.384 615.24ZM489.887 612.078H492.23C493.321 612.078 494.239 611.885 494.983 611.499C495.733 611.107 496.296 610.502 496.671 609.683C497.051 608.86 497.242 607.797 497.242 606.496C497.242 605.206 497.051 604.152 496.671 603.334C496.296 602.516 495.736 601.914 494.992 601.527C494.247 601.141 493.33 600.948 492.239 600.948H489.887V612.078ZM509.212 615.24V597.786H520.973V600.828H512.902V604.987H520.368V608.03H512.902V612.198H521.007V615.24H509.212ZM539.308 603.896H535.575C535.507 603.414 535.367 602.985 535.157 602.61C534.947 602.229 534.677 601.905 534.347 601.638C534.018 601.371 533.637 601.166 533.205 601.024C532.779 600.882 532.316 600.811 531.816 600.811C530.913 600.811 530.126 601.036 529.455 601.485C528.785 601.928 528.265 602.575 527.896 603.428C527.526 604.274 527.342 605.303 527.342 606.513C527.342 607.757 527.526 608.803 527.896 609.649C528.271 610.496 528.794 611.135 529.464 611.567C530.134 611.999 530.91 612.215 531.791 612.215C532.285 612.215 532.742 612.149 533.163 612.019C533.589 611.888 533.967 611.698 534.296 611.448C534.626 611.192 534.899 610.882 535.115 610.519C535.336 610.155 535.49 609.74 535.575 609.274L539.308 609.291C539.211 610.093 538.97 610.865 538.583 611.61C538.203 612.348 537.688 613.01 537.041 613.595C536.399 614.175 535.632 614.635 534.74 614.976C533.853 615.311 532.85 615.479 531.731 615.479C530.174 615.479 528.782 615.127 527.555 614.422C526.333 613.718 525.367 612.698 524.657 611.362C523.953 610.027 523.6 608.411 523.6 606.513C523.6 604.61 523.958 602.99 524.674 601.655C525.39 600.32 526.362 599.303 527.589 598.604C528.816 597.899 530.197 597.547 531.731 597.547C532.742 597.547 533.68 597.689 534.544 597.973C535.413 598.257 536.183 598.672 536.853 599.218C537.524 599.757 538.069 600.419 538.49 601.203C538.916 601.987 539.188 602.885 539.308 603.896ZM557.994 606.513C557.994 608.416 557.633 610.036 556.911 611.371C556.196 612.706 555.218 613.726 553.98 614.431C552.747 615.129 551.36 615.479 549.821 615.479C548.269 615.479 546.877 615.127 545.644 614.422C544.411 613.718 543.437 612.698 542.721 611.362C542.005 610.027 541.647 608.411 541.647 606.513C541.647 604.61 542.005 602.99 542.721 601.655C543.437 600.32 544.411 599.303 545.644 598.604C546.877 597.899 548.269 597.547 549.821 597.547C551.36 597.547 552.747 597.899 553.98 598.604C555.218 599.303 556.196 600.32 556.911 601.655C557.633 602.99 557.994 604.61 557.994 606.513ZM554.252 606.513C554.252 605.28 554.068 604.24 553.698 603.394C553.335 602.547 552.821 601.905 552.156 601.468C551.491 601.03 550.713 600.811 549.821 600.811C548.928 600.811 548.15 601.03 547.485 601.468C546.821 601.905 546.303 602.547 545.934 603.394C545.571 604.24 545.389 605.28 545.389 606.513C545.389 607.746 545.571 608.786 545.934 609.632C546.303 610.479 546.821 611.121 547.485 611.558C548.15 611.996 548.928 612.215 549.821 612.215C550.713 612.215 551.491 611.996 552.156 611.558C552.821 611.121 553.335 610.479 553.698 609.632C554.068 608.786 554.252 607.746 554.252 606.513ZM575.327 597.786V615.24H572.139L564.546 604.254H564.418V615.24H560.727V597.786H563.966L571.5 608.763H571.654V597.786H575.327ZM594.416 606.513C594.416 608.416 594.055 610.036 593.333 611.371C592.617 612.706 591.64 613.726 590.401 614.431C589.169 615.129 587.782 615.479 586.242 615.479C584.691 615.479 583.299 615.127 582.066 614.422C580.833 613.718 579.859 612.698 579.143 611.362C578.427 610.027 578.069 608.411 578.069 606.513C578.069 604.61 578.427 602.99 579.143 601.655C579.859 600.32 580.833 599.303 582.066 598.604C583.299 597.899 584.691 597.547 586.242 597.547C587.782 597.547 589.169 597.899 590.401 598.604C591.64 599.303 592.617 600.32 593.333 601.655C594.055 602.99 594.416 604.61 594.416 606.513ZM590.674 606.513C590.674 605.28 590.49 604.24 590.12 603.394C589.757 602.547 589.242 601.905 588.578 601.468C587.913 601.03 587.134 600.811 586.242 600.811C585.35 600.811 584.572 601.03 583.907 601.468C583.242 601.905 582.725 602.547 582.356 603.394C581.992 604.24 581.811 605.28 581.811 606.513C581.811 607.746 581.992 608.786 582.356 609.632C582.725 610.479 583.242 611.121 583.907 611.558C584.572 611.996 585.35 612.215 586.242 612.215C587.134 612.215 587.913 611.996 588.578 611.558C589.242 611.121 589.757 610.479 590.12 609.632C590.49 608.786 590.674 607.746 590.674 606.513ZM597.149 597.786H601.7L606.507 609.513H606.712L611.519 597.786H616.07V615.24H612.49V603.879H612.345L607.828 615.155H605.391L600.874 603.837H600.729V615.24H597.149V597.786ZM618.088 597.786H622.221L626.201 605.303H626.372L630.352 597.786H634.485L628.119 609.07V615.24H624.454V609.07L618.088 597.786Z" fill="#A0A0A0"/>
</svg>
