<svg width="789" height="197" viewBox="0 0 789 197" fill="none" xmlns="http://www.w3.org/2000/svg">
<path d="M0 167.5C-8.64015e-05 171.918 3.58157 175.5 7.99984 175.5C12.4181 175.5 15.9999 171.918 16 167.5C16.0001 163.082 12.4184 159.5 8.00016 159.5C3.58188 159.5 8.64015e-05 163.082 0 167.5ZM773 167.515C773 171.933 776.582 175.515 781 175.515C785.418 175.515 789 171.934 789 167.515C789 163.097 785.418 159.515 781 159.515C776.582 159.515 773 163.097 773 167.515ZM7.99997 169L781 169.015L781 166.015L8.00003 166L7.99997 169Z" fill="#FF9900"/>
<g filter="url(#filter0_d_2_18)">
<path d="M66.0625 131.774V124.636H96.7976V131.774H85.7713V161H77.1065V131.774H66.0625ZM109.773 145.446V161H101.09V124.636H109.488V138.734H109.79C110.406 137.054 111.412 135.74 112.809 134.793C114.217 133.846 115.94 133.372 117.976 133.372C119.893 133.372 121.562 133.798 122.983 134.651C124.403 135.491 125.504 136.681 126.285 138.219C127.078 139.758 127.469 141.558 127.457 143.617V161H118.775V145.322C118.787 143.807 118.408 142.623 117.638 141.771C116.869 140.918 115.786 140.492 114.389 140.492C113.478 140.492 112.673 140.693 111.974 141.096C111.288 141.487 110.749 142.049 110.358 142.783C109.98 143.517 109.784 144.404 109.773 145.446ZM145.626 161.515C142.773 161.515 140.311 160.953 138.239 159.828C136.18 158.692 134.594 157.076 133.481 154.981C132.38 152.874 131.83 150.37 131.83 147.47C131.83 144.653 132.386 142.191 133.499 140.084C134.611 137.965 136.18 136.32 138.204 135.148C140.228 133.964 142.613 133.372 145.359 133.372C147.301 133.372 149.076 133.674 150.686 134.278C152.296 134.881 153.687 135.775 154.859 136.959C156.031 138.143 156.942 139.604 157.593 141.344C158.244 143.073 158.57 145.055 158.57 147.293V149.459H134.866V144.416H150.491C150.479 143.493 150.26 142.67 149.834 141.948C149.408 141.226 148.822 140.664 148.076 140.261C147.342 139.847 146.496 139.64 145.537 139.64C144.566 139.64 143.696 139.859 142.927 140.297C142.157 140.723 141.548 141.309 141.098 142.055C140.648 142.789 140.411 143.623 140.388 144.558V149.69C140.388 150.802 140.607 151.779 141.045 152.619C141.483 153.448 142.104 154.093 142.909 154.555C143.714 155.016 144.673 155.247 145.786 155.247C146.555 155.247 147.253 155.141 147.881 154.928C148.508 154.714 149.047 154.401 149.496 153.987C149.946 153.572 150.284 153.063 150.509 152.46L158.481 152.69C158.149 154.478 157.421 156.034 156.297 157.36C155.184 158.674 153.722 159.698 151.911 160.432C150.1 161.154 148.005 161.515 145.626 161.515ZM189.247 133.727V140.119H171.704V133.727H189.247ZM175.362 161V132.342C175.362 130.235 175.759 128.489 176.552 127.104C177.345 125.708 178.446 124.666 179.854 123.979C181.263 123.281 182.89 122.932 184.737 122.932C185.944 122.932 187.081 123.027 188.146 123.216C189.223 123.393 190.022 123.553 190.543 123.695L189.158 130.052C188.839 129.945 188.448 129.857 187.986 129.786C187.537 129.714 187.11 129.679 186.708 129.679C185.69 129.679 184.992 129.904 184.613 130.354C184.234 130.804 184.045 131.419 184.045 132.2V161H175.362ZM211.02 149.228V133.727H219.685V161H211.411V155.922H211.126C210.523 157.591 209.493 158.917 208.037 159.899C206.593 160.87 204.847 161.355 202.799 161.355C200.941 161.355 199.307 160.929 197.898 160.077C196.49 159.224 195.395 158.035 194.614 156.508C193.832 154.969 193.436 153.17 193.424 151.11V133.727H202.107V149.406C202.118 150.885 202.509 152.051 203.278 152.903C204.048 153.756 205.095 154.182 206.421 154.182C207.285 154.182 208.061 153.992 208.747 153.614C209.446 153.223 209.996 152.661 210.398 151.927C210.813 151.181 211.02 150.281 211.02 149.228ZM240.605 133.727V140.119H223.4V133.727H240.605ZM227.004 127.193H235.687V152.424C235.687 152.957 235.77 153.389 235.936 153.72C236.113 154.04 236.368 154.271 236.699 154.413C237.03 154.543 237.427 154.608 237.889 154.608C238.22 154.608 238.569 154.578 238.936 154.519C239.315 154.448 239.599 154.389 239.789 154.342L241.102 160.609C240.688 160.728 240.102 160.876 239.345 161.053C238.599 161.231 237.705 161.343 236.664 161.391C234.628 161.485 232.882 161.249 231.426 160.68C229.981 160.1 228.875 159.201 228.105 157.982C227.348 156.762 226.981 155.229 227.004 153.383V127.193ZM262.631 149.228V133.727H271.296V161H263.022V155.922H262.738C262.134 157.591 261.104 158.917 259.648 159.899C258.204 160.87 256.458 161.355 254.41 161.355C252.552 161.355 250.918 160.929 249.51 160.077C248.101 159.224 247.006 158.035 246.225 156.508C245.444 154.969 245.047 153.17 245.035 151.11V133.727H253.718V149.406C253.73 150.885 254.12 152.051 254.89 152.903C255.659 153.756 256.707 154.182 258.032 154.182C258.897 154.182 259.672 153.992 260.358 153.614C261.057 153.223 261.607 152.661 262.01 151.927C262.424 151.181 262.631 150.281 262.631 149.228ZM276.822 161V133.727H285.256V138.699H285.54C286.038 136.9 286.848 135.562 287.973 134.686C289.098 133.798 290.406 133.354 291.897 133.354C292.299 133.354 292.714 133.384 293.14 133.443C293.566 133.491 293.963 133.567 294.33 133.674V141.22C293.915 141.078 293.371 140.966 292.696 140.883C292.033 140.8 291.441 140.759 290.92 140.759C289.891 140.759 288.961 140.989 288.133 141.451C287.316 141.901 286.671 142.534 286.197 143.351C285.736 144.156 285.505 145.103 285.505 146.192V161H276.822ZM309.2 161.515C306.347 161.515 303.885 160.953 301.814 159.828C299.754 158.692 298.168 157.076 297.055 154.981C295.954 152.874 295.404 150.37 295.404 147.47C295.404 144.653 295.96 142.191 297.073 140.084C298.185 137.965 299.754 136.32 301.778 135.148C303.802 133.964 306.187 133.372 308.934 133.372C310.875 133.372 312.65 133.674 314.26 134.278C315.87 134.881 317.261 135.775 318.433 136.959C319.605 138.143 320.516 139.604 321.167 141.344C321.818 143.073 322.144 145.055 322.144 147.293V149.459H298.44V144.416H314.065C314.053 143.493 313.834 142.67 313.408 141.948C312.982 141.226 312.396 140.664 311.65 140.261C310.916 139.847 310.07 139.64 309.111 139.64C308.141 139.64 307.27 139.859 306.501 140.297C305.732 140.723 305.122 141.309 304.672 142.055C304.222 142.789 303.986 143.623 303.962 144.558V149.69C303.962 150.802 304.181 151.779 304.619 152.619C305.057 153.448 305.678 154.093 306.483 154.555C307.288 155.016 308.247 155.247 309.36 155.247C310.129 155.247 310.828 155.141 311.455 154.928C312.082 154.714 312.621 154.401 313.071 153.987C313.52 153.572 313.858 153.063 314.083 152.46L322.055 152.69C321.724 154.478 320.996 156.034 319.871 157.36C318.758 158.674 317.297 159.698 315.485 160.432C313.674 161.154 311.579 161.515 309.2 161.515ZM350.051 161.515C347.187 161.515 344.725 160.929 342.665 159.757C340.617 158.573 339.037 156.928 337.924 154.821C336.823 152.702 336.273 150.246 336.273 147.452C336.273 144.647 336.823 142.191 337.924 140.084C339.037 137.965 340.617 136.32 342.665 135.148C344.725 133.964 347.187 133.372 350.051 133.372C352.916 133.372 355.372 133.964 357.42 135.148C359.48 136.32 361.06 137.965 362.161 140.084C363.273 142.191 363.83 144.647 363.83 147.452C363.83 150.246 363.273 152.702 362.161 154.821C361.06 156.928 359.48 158.573 357.42 159.757C355.372 160.929 352.916 161.515 350.051 161.515ZM350.105 154.963C351.146 154.963 352.028 154.643 352.75 154.004C353.472 153.365 354.023 152.477 354.401 151.341C354.792 150.205 354.987 148.891 354.987 147.399C354.987 145.884 354.792 144.558 354.401 143.422C354.023 142.286 353.472 141.398 352.75 140.759C352.028 140.119 351.146 139.8 350.105 139.8C349.027 139.8 348.116 140.119 347.37 140.759C346.636 141.398 346.074 142.286 345.683 143.422C345.305 144.558 345.115 145.884 345.115 147.399C345.115 148.891 345.305 150.205 345.683 151.341C346.074 152.477 346.636 153.365 347.37 154.004C348.116 154.643 349.027 154.963 350.105 154.963ZM383.778 133.727V140.119H366.236V133.727H383.778ZM369.893 161V132.342C369.893 130.235 370.29 128.489 371.083 127.104C371.876 125.708 372.977 124.666 374.385 123.979C375.794 123.281 377.422 122.932 379.268 122.932C380.476 122.932 381.612 123.027 382.677 123.216C383.755 123.393 384.554 123.553 385.074 123.695L383.689 130.052C383.37 129.945 382.979 129.857 382.518 129.786C382.068 129.714 381.642 129.679 381.239 129.679C380.221 129.679 379.523 129.904 379.144 130.354C378.765 130.804 378.576 131.419 378.576 132.2V161H369.893ZM552.42 136.515C552.219 135.769 551.923 135.112 551.533 134.544C551.142 133.964 550.663 133.473 550.094 133.07C549.526 132.668 548.875 132.366 548.141 132.165C547.407 131.952 546.603 131.845 545.727 131.845C543.963 131.845 542.436 132.271 541.146 133.124C539.867 133.976 538.879 135.219 538.18 136.852C537.482 138.474 537.133 140.445 537.133 142.765C537.133 145.097 537.47 147.085 538.145 148.731C538.82 150.376 539.796 151.631 541.075 152.495C542.353 153.359 543.904 153.791 545.727 153.791C547.336 153.791 548.698 153.531 549.81 153.01C550.935 152.477 551.787 151.726 552.367 150.755C552.947 149.784 553.237 148.642 553.237 147.328L554.871 147.523H546.028V141.114H561.707V145.925C561.707 149.181 561.014 151.968 559.629 154.288C558.256 156.608 556.362 158.39 553.947 159.633C551.545 160.876 548.781 161.497 545.656 161.497C542.187 161.497 539.139 160.746 536.511 159.242C533.884 157.739 531.836 155.596 530.368 152.815C528.9 150.021 528.166 146.707 528.166 142.871C528.166 139.888 528.61 137.243 529.498 134.935C530.386 132.615 531.623 130.65 533.209 129.04C534.807 127.43 536.653 126.211 538.749 125.382C540.856 124.554 543.122 124.139 545.549 124.139C547.656 124.139 549.615 124.441 551.426 125.045C553.249 125.648 554.859 126.501 556.256 127.602C557.664 128.702 558.807 130.01 559.683 131.526C560.558 133.041 561.103 134.704 561.316 136.515H552.42ZM574.575 161.462C572.835 161.462 571.29 161.172 569.941 160.592C568.603 160 567.544 159.112 566.763 157.928C565.993 156.733 565.608 155.235 565.608 153.436C565.608 151.921 565.875 150.643 566.407 149.601C566.94 148.559 567.674 147.713 568.609 147.062C569.544 146.411 570.622 145.92 571.841 145.588C573.06 145.245 574.362 145.014 575.747 144.896C577.298 144.754 578.546 144.606 579.493 144.452C580.44 144.286 581.127 144.055 581.553 143.759C581.991 143.451 582.21 143.019 582.21 142.463V142.374C582.21 141.463 581.896 140.759 581.269 140.261C580.642 139.764 579.795 139.516 578.73 139.516C577.582 139.516 576.658 139.764 575.96 140.261C575.262 140.759 574.818 141.445 574.628 142.321L566.621 142.037C566.857 140.38 567.467 138.9 568.449 137.598C569.444 136.284 570.805 135.254 572.533 134.509C574.273 133.751 576.363 133.372 578.801 133.372C580.541 133.372 582.145 133.579 583.613 133.994C585.081 134.396 586.359 134.988 587.448 135.769C588.537 136.539 589.377 137.486 589.969 138.61C590.573 139.735 590.875 141.019 590.875 142.463V161H582.707V157.2H582.494C582.009 158.124 581.387 158.905 580.63 159.544C579.884 160.183 579.002 160.663 577.984 160.982C576.978 161.302 575.842 161.462 574.575 161.462ZM577.256 155.78C578.191 155.78 579.032 155.59 579.778 155.212C580.535 154.833 581.139 154.312 581.589 153.649C582.038 152.974 582.263 152.193 582.263 151.305V148.713C582.015 148.843 581.713 148.962 581.358 149.068C581.015 149.175 580.636 149.275 580.221 149.37C579.807 149.465 579.381 149.548 578.943 149.619C578.505 149.69 578.085 149.755 577.682 149.814C576.866 149.944 576.167 150.145 575.587 150.418C575.019 150.69 574.581 151.045 574.273 151.483C573.977 151.909 573.829 152.418 573.829 153.01C573.829 153.91 574.149 154.596 574.788 155.07C575.439 155.543 576.262 155.78 577.256 155.78ZM596.184 161V133.727H604.44V138.734H604.742C605.31 137.077 606.269 135.769 607.618 134.81C608.968 133.852 610.578 133.372 612.448 133.372C614.342 133.372 615.964 133.857 617.313 134.828C618.662 135.799 619.521 137.101 619.888 138.734H620.172C620.681 137.113 621.675 135.817 623.155 134.846C624.634 133.863 626.38 133.372 628.393 133.372C630.973 133.372 633.068 134.201 634.678 135.858C636.288 137.503 637.093 139.764 637.093 142.641V161H628.41V144.629C628.41 143.268 628.061 142.232 627.363 141.522C626.664 140.8 625.759 140.439 624.646 140.439C623.451 140.439 622.51 140.83 621.823 141.611C621.148 142.38 620.811 143.416 620.811 144.718V161H612.466V144.54C612.466 143.274 612.122 142.274 611.436 141.54C610.749 140.806 609.844 140.439 608.719 140.439C607.962 140.439 607.293 140.622 606.713 140.989C606.133 141.344 605.677 141.853 605.346 142.516C605.026 143.179 604.866 143.96 604.866 144.86V161H596.184ZM642.473 161V133.727H651.155V161H642.473ZM646.823 130.549C645.604 130.549 644.556 130.147 643.68 129.342C642.804 128.525 642.366 127.542 642.366 126.394C642.366 125.258 642.804 124.287 643.68 123.482C644.556 122.665 645.604 122.257 646.823 122.257C648.054 122.257 649.102 122.665 649.966 123.482C650.842 124.287 651.28 125.258 651.28 126.394C651.28 127.542 650.842 128.525 649.966 129.342C649.102 130.147 648.054 130.549 646.823 130.549ZM665.364 145.446V161H656.682V133.727H664.938V138.734H665.24C665.844 137.065 666.874 135.757 668.33 134.81C669.786 133.852 671.52 133.372 673.532 133.372C675.45 133.372 677.113 133.804 678.521 134.668C679.942 135.521 681.043 136.716 681.824 138.255C682.617 139.782 683.008 141.569 682.996 143.617V161H674.313V145.322C674.325 143.807 673.94 142.623 673.159 141.771C672.39 140.918 671.318 140.492 669.945 140.492C669.034 140.492 668.229 140.693 667.531 141.096C666.844 141.487 666.311 142.049 665.933 142.783C665.566 143.517 665.376 144.404 665.364 145.446ZM701.084 171.795C698.492 171.795 696.273 171.434 694.426 170.712C692.579 169.99 691.129 169.002 690.076 167.747C689.022 166.492 688.389 165.072 688.176 163.486L696.397 163.024C696.551 163.58 696.835 164.066 697.249 164.48C697.675 164.894 698.226 165.214 698.9 165.439C699.587 165.664 700.392 165.776 701.315 165.776C702.771 165.776 703.973 165.421 704.92 164.711C705.878 164.013 706.358 162.787 706.358 161.036V156.241H706.056C705.713 157.082 705.192 157.834 704.493 158.496C703.795 159.159 702.925 159.68 701.883 160.059C700.854 160.438 699.67 160.627 698.332 160.627C696.344 160.627 694.521 160.165 692.863 159.242C691.218 158.307 689.898 156.863 688.904 154.91C687.921 152.945 687.43 150.418 687.43 147.328C687.43 144.144 687.939 141.522 688.957 139.462C689.975 137.391 691.307 135.858 692.952 134.864C694.609 133.869 696.391 133.372 698.297 133.372C699.729 133.372 700.954 133.621 701.972 134.118C703.002 134.603 703.848 135.231 704.511 136C705.174 136.769 705.677 137.568 706.02 138.397H706.269V133.727H714.916V161.107C714.916 163.415 714.336 165.362 713.176 166.948C712.016 168.534 710.394 169.736 708.311 170.553C706.228 171.381 703.819 171.795 701.084 171.795ZM701.351 154.306C702.404 154.306 703.304 154.028 704.05 153.472C704.795 152.915 705.369 152.116 705.772 151.075C706.174 150.033 706.376 148.784 706.376 147.328C706.376 145.848 706.174 144.576 705.772 143.511C705.381 142.433 704.807 141.605 704.05 141.025C703.304 140.445 702.404 140.155 701.351 140.155C700.273 140.155 699.362 140.451 698.616 141.043C697.871 141.634 697.302 142.469 696.912 143.546C696.533 144.612 696.344 145.872 696.344 147.328C696.344 148.784 696.539 150.033 696.93 151.075C697.32 152.116 697.882 152.915 698.616 153.472C699.362 154.028 700.273 154.306 701.351 154.306Z" fill="#001DA1"/>
<path d="M400.317 161V120.273H417.141C420.19 120.273 422.821 120.823 425.036 121.923C427.263 123.01 428.98 124.575 430.186 126.616C431.393 128.645 431.996 131.051 431.996 133.835C431.996 136.659 431.379 139.059 430.146 141.034C428.913 142.996 427.163 144.494 424.896 145.528C422.629 146.549 419.945 147.06 416.842 147.06H406.203V139.304H415.013C416.498 139.304 417.737 139.112 418.732 138.727C419.739 138.33 420.501 137.733 421.018 136.938C421.536 136.129 421.794 135.095 421.794 133.835C421.794 132.576 421.536 131.535 421.018 130.713C420.501 129.878 419.739 129.255 418.732 128.844C417.724 128.42 416.484 128.207 415.013 128.207H410.161V161H400.317ZM423.246 142.386L433.388 161H422.649L412.706 142.386H423.246ZM437.395 161V120.273H454.219C457.268 120.273 459.9 120.869 462.114 122.062C464.341 123.242 466.058 124.893 467.264 127.014C468.471 129.122 469.074 131.575 469.074 134.372C469.074 137.183 468.457 139.642 467.224 141.75C466.005 143.845 464.261 145.469 461.994 146.622C459.727 147.776 457.036 148.352 453.92 148.352H443.54V140.597H452.091C453.576 140.597 454.815 140.338 455.81 139.821C456.817 139.304 457.58 138.581 458.097 137.653C458.614 136.712 458.872 135.618 458.872 134.372C458.872 133.113 458.614 132.026 458.097 131.111C457.58 130.183 456.817 129.467 455.81 128.963C454.802 128.459 453.563 128.207 452.091 128.207H447.239V161H437.395ZM500.653 133.577C500.428 132.741 500.097 132.006 499.659 131.369C499.222 130.72 498.685 130.17 498.048 129.719C497.412 129.268 496.683 128.93 495.861 128.705C495.039 128.466 494.137 128.347 493.156 128.347C491.181 128.347 489.471 128.824 488.026 129.778C486.594 130.733 485.487 132.125 484.705 133.955C483.922 135.771 483.531 137.978 483.531 140.577C483.531 143.188 483.909 145.416 484.665 147.259C485.42 149.101 486.514 150.507 487.946 151.474C489.378 152.442 491.115 152.926 493.156 152.926C494.959 152.926 496.484 152.634 497.73 152.051C498.99 151.455 499.944 150.613 500.594 149.526C501.243 148.438 501.568 147.159 501.568 145.688L503.398 145.906H493.494V138.727H511.054V144.116C511.054 147.762 510.278 150.884 508.727 153.483C507.189 156.081 505.068 158.077 502.364 159.469C499.672 160.861 496.577 161.557 493.077 161.557C489.192 161.557 485.778 160.715 482.835 159.031C479.892 157.348 477.598 154.948 475.955 151.832C474.311 148.704 473.489 144.991 473.489 140.696C473.489 137.355 473.986 134.392 474.98 131.807C475.974 129.208 477.36 127.008 479.136 125.205C480.926 123.402 482.994 122.036 485.341 121.108C487.701 120.18 490.24 119.716 492.957 119.716C495.317 119.716 497.511 120.054 499.54 120.73C501.581 121.406 503.384 122.361 504.949 123.594C506.527 124.827 507.806 126.292 508.787 127.989C509.768 129.686 510.378 131.548 510.616 133.577H500.653Z" fill="#FF9900"/>
</g>
<g filter="url(#filter1_d_2_18)">
<path d="M224.886 93H206.75L230.307 23.1818H252.773L276.33 93H258.193L241.795 40.7727H241.25L224.886 93ZM222.466 65.5227H260.375V78.3409H222.466V65.5227ZM283.847 93V40.6364H300.04V50.1818H300.585C301.54 46.7273 303.097 44.1591 305.256 42.4773C307.415 40.7727 309.926 39.9205 312.79 39.9205C313.563 39.9205 314.358 39.9773 315.176 40.0909C315.994 40.1818 316.756 40.3295 317.46 40.5341V55.0227C316.665 54.75 315.619 54.5341 314.324 54.375C313.051 54.2159 311.915 54.1364 310.915 54.1364C308.938 54.1364 307.153 54.5795 305.562 55.4659C303.994 56.3295 302.756 57.5455 301.847 59.1136C300.96 60.6591 300.517 62.4773 300.517 64.5682V93H283.847ZM339.287 79.2614L339.355 59.3864H341.673L356.401 40.6364H375.287L353.401 67.5H349.003L339.287 79.2614ZM324.253 93V23.1818H340.923V93H324.253ZM356.776 93L343.071 71.25L354.048 59.4205L376.037 93H356.776ZM396.014 93.8864C392.673 93.8864 389.707 93.3295 387.116 92.2159C384.548 91.0795 382.514 89.375 381.014 87.1023C379.537 84.8068 378.798 81.9318 378.798 78.4773C378.798 75.5682 379.31 73.1136 380.332 71.1136C381.355 69.1136 382.764 67.4886 384.56 66.2386C386.355 64.9886 388.423 64.0455 390.764 63.4091C393.105 62.75 395.605 62.3068 398.264 62.0795C401.241 61.8068 403.639 61.5227 405.457 61.2273C407.276 60.9091 408.594 60.4659 409.412 59.8977C410.253 59.3068 410.673 58.4773 410.673 57.4091V57.2386C410.673 55.4886 410.071 54.1364 408.866 53.1818C407.662 52.2273 406.037 51.75 403.991 51.75C401.787 51.75 400.014 52.2273 398.673 53.1818C397.332 54.1364 396.48 55.4545 396.116 57.1364L380.741 56.5909C381.196 53.4091 382.366 50.5682 384.253 48.0682C386.162 45.5455 388.776 43.5682 392.094 42.1364C395.435 40.6818 399.446 39.9545 404.128 39.9545C407.469 39.9545 410.548 40.3523 413.366 41.1477C416.185 41.9205 418.639 43.0568 420.73 44.5568C422.821 46.0341 424.435 47.8523 425.571 50.0114C426.73 52.1705 427.31 54.6364 427.31 57.4091V93H411.628V85.7045H411.219C410.287 87.4773 409.094 88.9773 407.639 90.2045C406.207 91.4318 404.514 92.3523 402.56 92.9659C400.628 93.5795 398.446 93.8864 396.014 93.8864ZM401.162 82.9773C402.957 82.9773 404.571 82.6136 406.003 81.8864C407.457 81.1591 408.616 80.1591 409.48 78.8864C410.344 77.5909 410.776 76.0909 410.776 74.3864V69.4091C410.298 69.6591 409.719 69.8864 409.037 70.0909C408.378 70.2955 407.651 70.4886 406.855 70.6705C406.06 70.8523 405.241 71.0114 404.401 71.1477C403.56 71.2841 402.753 71.4091 401.98 71.5227C400.412 71.7727 399.071 72.1591 397.957 72.6818C396.866 73.2045 396.026 73.8864 395.435 74.7273C394.866 75.5455 394.582 76.5227 394.582 77.6591C394.582 79.3864 395.196 80.7045 396.423 81.6136C397.673 82.5227 399.253 82.9773 401.162 82.9773ZM454.173 63.1364V93H437.503V40.6364H453.355V50.25H453.935C455.094 47.0455 457.071 44.5341 459.866 42.7159C462.662 40.875 465.991 39.9545 469.855 39.9545C473.537 39.9545 476.73 40.7841 479.435 42.4432C482.162 44.0795 484.276 46.375 485.776 49.3295C487.298 52.2614 488.048 55.6932 488.026 59.625V93H471.355V62.8977C471.378 59.9886 470.639 57.7159 469.139 56.0795C467.662 54.4432 465.605 53.625 462.969 53.625C461.219 53.625 459.673 54.0114 458.332 54.7841C457.014 55.5341 455.991 56.6136 455.264 58.0227C454.56 59.4318 454.196 61.1364 454.173 63.1364ZM498.347 93V40.6364H515.017V93H498.347ZM506.699 34.5341C504.358 34.5341 502.347 33.7614 500.665 32.2159C498.983 30.6477 498.142 28.7614 498.142 26.5568C498.142 24.375 498.983 22.5114 500.665 20.9659C502.347 19.3977 504.358 18.6136 506.699 18.6136C509.063 18.6136 511.074 19.3977 512.733 20.9659C514.415 22.5114 515.256 24.375 515.256 26.5568C515.256 28.7614 514.415 30.6477 512.733 32.2159C511.074 33.7614 509.063 34.5341 506.699 34.5341ZM540.389 93.8864C537.048 93.8864 534.082 93.3295 531.491 92.2159C528.923 91.0795 526.889 89.375 525.389 87.1023C523.912 84.8068 523.173 81.9318 523.173 78.4773C523.173 75.5682 523.685 73.1136 524.707 71.1136C525.73 69.1136 527.139 67.4886 528.935 66.2386C530.73 64.9886 532.798 64.0455 535.139 63.4091C537.48 62.75 539.98 62.3068 542.639 62.0795C545.616 61.8068 548.014 61.5227 549.832 61.2273C551.651 60.9091 552.969 60.4659 553.787 59.8977C554.628 59.3068 555.048 58.4773 555.048 57.4091V57.2386C555.048 55.4886 554.446 54.1364 553.241 53.1818C552.037 52.2273 550.412 51.75 548.366 51.75C546.162 51.75 544.389 52.2273 543.048 53.1818C541.707 54.1364 540.855 55.4545 540.491 57.1364L525.116 56.5909C525.571 53.4091 526.741 50.5682 528.628 48.0682C530.537 45.5455 533.151 43.5682 536.469 42.1364C539.81 40.6818 543.821 39.9545 548.503 39.9545C551.844 39.9545 554.923 40.3523 557.741 41.1477C560.56 41.9205 563.014 43.0568 565.105 44.5568C567.196 46.0341 568.81 47.8523 569.946 50.0114C571.105 52.1705 571.685 54.6364 571.685 57.4091V93H556.003V85.7045H555.594C554.662 87.4773 553.469 88.9773 552.014 90.2045C550.582 91.4318 548.889 92.3523 546.935 92.9659C545.003 93.5795 542.821 93.8864 540.389 93.8864ZM545.537 82.9773C547.332 82.9773 548.946 82.6136 550.378 81.8864C551.832 81.1591 552.991 80.1591 553.855 78.8864C554.719 77.5909 555.151 76.0909 555.151 74.3864V69.4091C554.673 69.6591 554.094 69.8864 553.412 70.0909C552.753 70.2955 552.026 70.4886 551.23 70.6705C550.435 70.8523 549.616 71.0114 548.776 71.1477C547.935 71.2841 547.128 71.4091 546.355 71.5227C544.787 71.7727 543.446 72.1591 542.332 72.6818C541.241 73.2045 540.401 73.8864 539.81 74.7273C539.241 75.5455 538.957 76.5227 538.957 77.6591C538.957 79.3864 539.571 80.7045 540.798 81.6136C542.048 82.5227 543.628 82.9773 545.537 82.9773Z" fill="#000854" style="mix-blend-mode:color-burn" shape-rendering="crispEdges"/>
</g>
<circle cx="506.5" cy="27" r="9" fill="#FF9900"/>
<circle cx="647" cy="125.5" r="5.5" fill="#FF9900"/>
<defs>
<filter id="filter0_d_2_18" x="61.0625" y="114.716" width="678.854" height="82.0795" filterUnits="userSpaceOnUse" color-interpolation-filters="sRGB">
<feFlood flood-opacity="0" result="BackgroundImageFix"/>
<feColorMatrix in="SourceAlpha" type="matrix" values="0 0 0 0 0 0 0 0 0 0 0 0 0 0 0 0 0 0 127 0" result="hardAlpha"/>
<feOffset dx="10" dy="10"/>
<feGaussianBlur stdDeviation="7.5"/>
<feComposite in2="hardAlpha" operator="out"/>
<feColorMatrix type="matrix" values="0 0 0 0 0 0 0 0 0 0 0 0 0 0 0 0 0 0 0.4 0"/>
<feBlend mode="normal" in2="BackgroundImageFix" result="effect1_dropShadow_2_18"/>
<feBlend mode="normal" in="SourceGraphic" in2="effect1_dropShadow_2_18" result="shape"/>
</filter>
<filter id="filter1_d_2_18" x="201.75" y="13.6136" width="384.935" height="95.2727" filterUnits="userSpaceOnUse" color-interpolation-filters="sRGB">
<feFlood flood-opacity="0" result="BackgroundImageFix"/>
<feColorMatrix in="SourceAlpha" type="matrix" values="0 0 0 0 0 0 0 0 0 0 0 0 0 0 0 0 0 0 127 0" result="hardAlpha"/>
<feOffset dx="5" dy="5"/>
<feGaussianBlur stdDeviation="5"/>
<feComposite in2="hardAlpha" operator="out"/>
<feColorMatrix type="matrix" values="0 0 0 0 0 0 0 0 0 0 0 0 0 0 0 0 0 0 0.5 0"/>
<feBlend mode="normal" in2="BackgroundImageFix" result="effect1_dropShadow_2_18"/>
<feBlend mode="normal" in="SourceGraphic" in2="effect1_dropShadow_2_18" result="shape"/>
</filter>
</defs>
</svg>
